<?xml version="1.0" standalone="no"?>
<!DOCTYPE svg PUBLIC "-//W3C//DTD SVG 20010904//EN"
 "http://www.w3.org/TR/2001/REC-SVG-20010904/DTD/svg10.dtd">
<svg version="1.0" xmlns="http://www.w3.org/2000/svg"
 width="512.000000pt" height="512.000000pt" viewBox="0 0 512.000000 512.000000"
 preserveAspectRatio="xMidYMid meet">

<g transform="translate(0.000000,512.000000) scale(0.100000,-0.100000)"
fill="#ffffff" stroke="none">
<path d="M3528 4797 c177 -177 322 -327 322 -332 0 -5 -467 -478 -1038 -1050
-1196 -1197 -1097 -1082 -1097 -1281 0 -107 1 -112 37 -185 46 -93 112 -158
206 -202 63 -30 74 -32 177 -32 198 0 90 -93 1285 1101 569 569 1040 1034
1045 1034 5 0 155 -145 332 -322 l323 -323 0 958 0 957 -957 0 -958 0 323
-323z"/>
<path d="M725 4672 c-120 -41 -205 -117 -258 -230 l-32 -67 0 -1816 0 -1815
37 -75 c46 -93 112 -158 206 -202 l67 -32 1816 0 1815 0 75 37 c93 46 158 112
202 206 l32 67 3 827 c2 801 2 829 -17 865 -67 132 -231 163 -334 65 -66 -62
-62 -9 -67 -867 l-5 -780 -1705 0 -1705 0 0 1705 0 1705 780 5 c858 5 805 1
867 67 98 103 67 267 -64 334 -36 18 -69 19 -850 19 -745 -1 -817 -2 -863 -18z"/>
</g>
</svg>
