<?xml version="1.0" standalone="no"?>
<!DOCTYPE svg PUBLIC "-//W3C//DTD SVG 20010904//EN"
 "http://www.w3.org/TR/2001/REC-SVG-20010904/DTD/svg10.dtd">
<svg version="1.0" xmlns="http://www.w3.org/2000/svg"
 width="512.000000pt" height="512.000000pt" viewBox="0 0 512.000000 512.000000"
 preserveAspectRatio="xMidYMid meet">

<g transform="translate(0.000000,512.000000) scale(0.100000,-0.100000)"
fill="#A1AAA1" stroke="none">
<path d="M2415 3834 c-314 -48 -548 -163 -763 -376 -135 -133 -241 -304 -302
-486 l-29 -87 -383 -5 c-383 -5 -383 -5 -433 -30 -64 -31 -124 -91 -155 -155
-34 -69 -35 -198 -2 -265 34 -71 75 -113 144 -151 l63 -34 381 -3 382 -3 32
-92 c111 -320 330 -573 626 -724 181 -93 326 -131 530 -140 324 -14 620 85
873 293 179 148 322 359 395 581 l27 82 382 3 382 3 51 27 c76 40 107 70 145
140 31 58 34 70 34 148 0 78 -3 90 -34 148 -37 69 -79 109 -151 144 -44 22
-54 23 -427 26 l-382 3 -27 82 c-139 426 -495 745 -944 848 -83 19 -344 34
-415 23z m279 -649 c367 -78 594 -474 473 -824 -36 -102 -81 -174 -157 -251
-254 -253 -647 -253 -901 1 -251 249 -251 648 0 900 156 155 371 219 585 174z"/>
</g>
</svg>
