<svg width="742.701" height="86.005" viewBox="-10 0 742.701 86.005" xmlns="http://www.w3.org/2000/svg"><g id="svgGroup" stroke-linecap="round" fill-rule="evenodd" font-size="9pt" stroke="#ffffff" stroke-width="0.25mm" fill="#fffcfc" style="stroke:#ffffff;stroke-width:0.25mm;fill:#fffcfc"><path d="M 198.901 36.803 L 198.901 65.503 A 23.663 23.663 0 0 0 199.095 68.641 Q 199.554 72.064 201.101 74.103 A 7.002 7.002 0 0 0 206.176 76.958 A 9.23 9.23 0 0 0 207.101 77.003 Q 210.129 77.003 212.84 74.082 A 17.233 17.233 0 0 0 214.201 72.403 A 14.058 14.058 0 0 0 216.046 68.669 Q 217.501 64.343 217.501 57.503 A 0.691 0.691 0 0 1 217.722 57.193 A 34.525 34.525 0 0 1 218.333 51.838 Q 219.582 45.637 223.301 41.553 A 18.33 18.33 0 0 1 236.659 35.422 A 23.917 23.917 0 0 1 237.601 35.403 Q 241.67 35.403 244.32 36.8 A 8.463 8.463 0 0 1 246.801 38.753 Q 249.701 42.103 249.701 46.703 A 6.763 6.763 0 0 1 249.49 48.438 A 4.924 4.924 0 0 1 248.201 50.703 Q 246.701 52.203 245.301 52.203 A 8.78 8.78 0 0 1 244.181 52.137 Q 242.514 51.922 241.901 51.003 A 6.769 6.769 0 0 0 242.23 49.879 Q 242.501 48.584 242.501 46.703 Q 242.501 43.903 240.601 41.603 A 6.867 6.867 0 0 0 239.012 40.168 A 5.479 5.479 0 0 0 236.001 39.303 Q 231.301 39.303 229.251 43.903 Q 227.201 48.503 227.201 58.353 A 39.85 39.85 0 0 0 227.497 63.398 Q 228.269 69.424 231.051 72.603 Q 234.901 77.003 241.801 77.003 A 18.511 18.511 0 0 0 247.787 76.069 A 15.934 15.934 0 0 0 253.401 72.753 A 13.824 13.824 0 0 0 257.619 65.336 A 21.008 21.008 0 0 0 258.101 60.703 A 0.539 0.539 0 0 1 258.301 60.375 L 258.301 41.503 A 9.59 9.59 0 0 1 258.448 39.77 Q 258.77 38.019 259.801 36.953 A 5.021 5.021 0 0 1 263.387 35.407 A 6.663 6.663 0 0 1 263.601 35.403 A 6.13 6.13 0 0 1 265.253 35.615 A 4.59 4.59 0 0 1 267.301 36.803 L 267.301 65.503 A 35.441 35.441 0 0 0 267.503 69.472 Q 268.403 77.403 273.301 77.403 Q 277.01 77.403 280.142 73.735 A 19.382 19.382 0 0 0 281.451 72.003 Q 285.101 66.603 285.101 56.803 L 285.101 41.503 A 8.448 8.448 0 0 1 285.276 39.73 Q 285.646 38.007 286.801 36.953 Q 288.501 35.403 290.901 35.403 A 6.658 6.658 0 0 1 292.497 35.584 A 4.609 4.609 0 0 1 294.701 36.803 L 294.701 65.503 A 29.205 29.205 0 0 0 294.844 68.488 Q 295.175 71.704 296.278 73.72 A 8.078 8.078 0 0 0 296.501 74.103 A 6.956 6.956 0 0 0 297.857 75.724 A 5.252 5.252 0 0 0 301.401 77.003 A 5.827 5.827 0 0 0 304.357 76.159 Q 305.277 75.625 306.178 74.753 A 14.748 14.748 0 0 0 307.401 73.403 Q 310.801 69.103 310.801 57.503 A 0.539 0.539 0 0 1 311.085 57.122 A 1.277 1.277 0 0 1 311.101 57.113 L 311.101 24.903 Q 311.101 12.003 313.801 6.003 A 10.76 10.76 0 0 1 316.19 2.541 Q 318.29 0.558 321.449 0.125 A 13.611 13.611 0 0 1 323.301 0.003 A 10.224 10.224 0 0 1 327.919 0.977 Q 332.202 3.116 333.012 9.955 A 29.383 29.383 0 0 1 333.201 13.403 Q 333.201 23.503 329.251 29.603 A 33.554 33.554 0 0 1 325.575 34.347 A 24.25 24.25 0 0 1 320.201 38.703 L 320.201 65.503 A 23.663 23.663 0 0 0 320.395 68.641 Q 320.854 72.064 322.401 74.103 A 7.002 7.002 0 0 0 327.476 76.958 A 9.23 9.23 0 0 0 328.401 77.003 Q 331.429 77.003 334.14 74.082 A 17.233 17.233 0 0 0 335.501 72.403 A 14.058 14.058 0 0 0 337.346 68.669 Q 338.801 64.343 338.801 57.503 A 0.691 0.691 0 0 1 338.901 57.317 L 338.901 41.503 A 9.59 9.59 0 0 1 339.048 39.77 Q 339.37 38.019 340.401 36.953 A 5.021 5.021 0 0 1 343.987 35.407 A 6.663 6.663 0 0 1 344.201 35.403 A 6.13 6.13 0 0 1 345.853 35.615 A 4.59 4.59 0 0 1 347.901 36.803 L 347.901 65.503 A 35.441 35.441 0 0 0 348.103 69.472 Q 349.003 77.403 353.901 77.403 Q 357.61 77.403 360.742 73.735 A 19.382 19.382 0 0 0 362.051 72.003 Q 365.701 66.603 365.701 56.803 L 365.701 41.503 A 8.448 8.448 0 0 1 365.876 39.73 Q 366.246 38.007 367.401 36.953 Q 369.101 35.403 371.501 35.403 A 6.658 6.658 0 0 1 373.097 35.584 A 4.609 4.609 0 0 1 375.301 36.803 L 375.301 65.503 A 29.205 29.205 0 0 0 375.444 68.488 Q 375.775 71.704 376.878 73.72 A 8.078 8.078 0 0 0 377.101 74.103 A 6.956 6.956 0 0 0 378.457 75.724 A 5.252 5.252 0 0 0 382.001 77.003 A 5.827 5.827 0 0 0 384.957 76.159 Q 385.877 75.625 386.778 74.753 A 14.748 14.748 0 0 0 388.001 73.403 Q 391.401 69.103 391.401 57.503 A 0.539 0.539 0 0 1 391.601 57.175 L 391.601 36.803 A 3.052 3.052 0 0 1 393.073 35.716 Q 393.92 35.403 395.101 35.403 A 6.532 6.532 0 0 1 396.869 35.63 A 4.883 4.883 0 0 1 399.101 36.953 Q 400.601 38.503 400.601 41.503 A 11.303 11.303 0 0 1 408.782 35.695 A 17.899 17.899 0 0 1 412.101 35.403 Q 421.339 35.403 424.714 43.062 A 16.974 16.974 0 0 1 424.901 43.503 A 13.806 13.806 0 0 1 428.016 38.814 Q 430.651 36.283 434.655 35.63 A 18.313 18.313 0 0 1 437.601 35.403 A 16.696 16.696 0 0 1 442.104 35.98 A 12.465 12.465 0 0 1 447.951 39.503 Q 451.218 42.983 451.713 49.055 A 27.712 27.712 0 0 1 451.801 51.303 L 451.801 65.503 A 29.205 29.205 0 0 0 451.944 68.488 Q 452.275 71.704 453.378 73.72 A 8.078 8.078 0 0 0 453.601 74.103 Q 455.229 76.726 458.288 76.977 A 8.113 8.113 0 0 0 458.951 77.003 Q 461.893 77.003 464.251 73.948 A 15.112 15.112 0 0 0 465.201 72.553 Q 467.458 68.833 467.829 60.815 A 71.923 71.923 0 0 0 467.901 57.503 A 0.539 0.539 0 0 1 468.185 57.122 Q 468.554 56.904 469.393 56.903 A 6.379 6.379 0 0 1 469.401 56.903 Q 471.201 56.903 471.201 62.203 A 32.295 32.295 0 0 1 470.77 67.645 Q 470.255 70.652 469.127 73.087 A 16.772 16.772 0 0 1 467.551 75.803 Q 463.901 80.903 456.901 80.903 A 16.285 16.285 0 0 1 452.381 80.31 A 11.897 11.897 0 0 1 446.151 76.103 Q 442.401 71.303 442.401 62.503 L 442.401 50.803 A 35.441 35.441 0 0 0 442.199 46.835 Q 441.3 38.903 436.401 38.903 A 7.436 7.436 0 0 0 429.797 43.046 Q 426.399 48.766 426.212 62.387 A 117.567 117.567 0 0 0 426.201 64.003 L 426.201 79.503 Q 425.401 80.623 423.609 80.847 A 7.736 7.736 0 0 1 422.651 80.903 A 6.835 6.835 0 0 1 420.74 80.649 A 5.285 5.285 0 0 1 418.501 79.353 A 4.607 4.607 0 0 1 418.476 79.329 Q 417.08 77.955 416.921 75.459 A 10.374 10.374 0 0 1 416.901 74.803 L 416.901 50.803 A 35.441 35.441 0 0 0 416.699 46.835 Q 415.8 38.903 410.901 38.903 Q 405.901 38.903 403.251 44.403 Q 400.601 49.903 400.601 63.803 L 400.601 79.503 A 3.052 3.052 0 0 1 399.129 80.59 Q 398.283 80.903 397.101 80.903 A 6.532 6.532 0 0 1 395.334 80.676 A 4.883 4.883 0 0 1 393.101 79.353 A 4.461 4.461 0 0 1 393.078 79.329 Q 391.828 78.018 391.636 75.685 A 10.747 10.747 0 0 1 391.602 74.98 A 16.772 16.772 0 0 1 391.051 75.803 A 11.625 11.625 0 0 1 382.599 80.802 A 15.605 15.605 0 0 1 380.801 80.903 A 17.586 17.586 0 0 1 375.333 80.109 Q 369.347 78.157 367.001 71.403 A 16.795 16.795 0 0 1 363.789 76.565 Q 359.729 80.903 352.701 80.903 A 16.652 16.652 0 0 1 348.224 80.331 A 12.497 12.497 0 0 1 342.701 77.153 A 12.117 12.117 0 0 1 339.786 72.425 A 19.785 19.785 0 0 1 337.901 75.403 A 14.887 14.887 0 0 1 334.269 78.861 A 12.577 12.577 0 0 1 327.201 80.903 A 21.708 21.708 0 0 1 322.539 80.434 Q 319.554 79.778 317.355 78.201 A 12.1 12.1 0 0 1 315.101 76.103 A 15.816 15.816 0 0 1 312.58 71.748 A 21.525 21.525 0 0 1 312.027 73.087 A 16.772 16.772 0 0 1 310.451 75.803 A 11.625 11.625 0 0 1 301.999 80.802 A 15.605 15.605 0 0 1 300.201 80.903 A 17.586 17.586 0 0 1 294.733 80.109 Q 288.747 78.157 286.401 71.403 A 16.795 16.795 0 0 1 283.189 76.565 Q 279.129 80.903 272.101 80.903 A 16.652 16.652 0 0 1 267.624 80.331 A 12.497 12.497 0 0 1 262.101 77.153 A 12.117 12.117 0 0 1 258.987 71.766 A 21.871 21.871 0 0 1 258.474 72.566 A 27.001 27.001 0 0 1 257.051 74.503 A 14.349 14.349 0 0 1 253.95 77.337 A 20.013 20.013 0 0 1 250.751 79.103 A 20.792 20.792 0 0 1 244.835 80.709 A 26.228 26.228 0 0 1 241.601 80.903 Q 232.835 80.903 227.039 77.442 A 19.617 19.617 0 0 1 224.051 75.253 A 18.083 18.083 0 0 1 219.739 69.393 A 19.785 19.785 0 0 1 216.601 75.403 A 14.887 14.887 0 0 1 212.969 78.861 A 12.577 12.577 0 0 1 205.901 80.903 A 21.64 21.64 0 0 1 201.244 80.434 Q 196.567 79.403 193.851 76.103 A 15.83 15.83 0 0 1 191.016 70.724 Q 189.901 67.178 189.901 62.503 L 189.901 41.503 A 9.59 9.59 0 0 1 190.048 39.77 Q 190.37 38.019 191.401 36.953 A 5.021 5.021 0 0 1 194.987 35.407 A 6.663 6.663 0 0 1 195.201 35.403 A 6.13 6.13 0 0 1 196.853 35.615 A 4.59 4.59 0 0 1 198.901 36.803 Z M 59.645 73.081 A 31.421 31.421 0 0 0 60.071 72.38 A 12.117 12.117 0 0 0 63.001 77.153 A 12.497 12.497 0 0 0 68.524 80.331 A 16.652 16.652 0 0 0 73.001 80.903 Q 80.029 80.903 84.089 76.565 A 16.795 16.795 0 0 0 87.301 71.403 Q 89.647 78.157 95.633 80.109 A 17.586 17.586 0 0 0 101.101 80.903 A 15.605 15.605 0 0 0 102.899 80.802 A 11.625 11.625 0 0 0 111.351 75.803 A 16.772 16.772 0 0 0 111.902 74.98 A 10.747 10.747 0 0 0 111.936 75.685 Q 112.128 78.018 113.378 79.329 A 4.461 4.461 0 0 0 113.401 79.353 A 4.883 4.883 0 0 0 115.634 80.676 A 6.532 6.532 0 0 0 117.401 80.903 Q 118.583 80.903 119.429 80.59 A 3.052 3.052 0 0 0 120.901 79.503 L 120.901 63.603 Q 120.901 59.547 122.674 54.238 A 60.094 60.094 0 0 1 124.651 49.153 A 34.387 34.387 0 0 1 125.673 47.015 Q 129.031 40.603 133.101 40.603 A 5.479 5.479 0 0 1 136.112 41.468 A 6.867 6.867 0 0 1 137.701 42.903 Q 139.601 45.203 139.601 48.003 Q 139.601 49.884 139.33 51.179 A 6.769 6.769 0 0 1 139.001 52.303 Q 139.614 53.222 141.281 53.437 A 8.78 8.78 0 0 0 142.401 53.503 Q 143.801 53.503 145.301 52.003 A 4.924 4.924 0 0 0 146.59 49.738 A 6.763 6.763 0 0 0 146.801 48.003 Q 146.801 43.403 143.901 40.053 A 8.463 8.463 0 0 0 141.42 38.1 Q 138.77 36.703 134.701 36.703 A 11.408 11.408 0 0 0 126.9 39.759 Q 125.039 41.416 123.454 43.972 A 33.492 33.492 0 0 0 120.901 49.103 L 120.901 41.503 Q 120.901 38.503 119.401 36.953 A 4.883 4.883 0 0 0 117.169 35.63 A 6.532 6.532 0 0 0 115.401 35.403 Q 114.22 35.403 113.373 35.716 A 3.052 3.052 0 0 0 111.901 36.803 L 111.901 57.175 A 0.539 0.539 0 0 0 111.701 57.503 Q 111.701 69.103 108.301 73.403 A 14.748 14.748 0 0 1 107.078 74.753 Q 106.177 75.625 105.257 76.159 A 5.827 5.827 0 0 1 102.301 77.003 A 5.252 5.252 0 0 1 98.757 75.724 A 6.956 6.956 0 0 1 97.401 74.103 A 8.078 8.078 0 0 1 97.178 73.72 Q 96.075 71.704 95.744 68.488 A 29.205 29.205 0 0 1 95.601 65.503 L 95.601 36.803 A 4.609 4.609 0 0 0 93.397 35.584 A 6.658 6.658 0 0 0 91.801 35.403 Q 89.401 35.403 87.701 36.953 Q 86.546 38.007 86.176 39.73 A 8.448 8.448 0 0 0 86.001 41.503 L 86.001 56.803 Q 86.001 66.603 82.351 72.003 A 19.382 19.382 0 0 1 81.042 73.735 Q 77.91 77.403 74.201 77.403 Q 69.303 77.403 68.403 69.472 A 35.441 35.441 0 0 1 68.201 65.503 L 68.201 36.803 A 4.59 4.59 0 0 0 66.153 35.615 A 6.13 6.13 0 0 0 64.501 35.403 A 6.663 6.663 0 0 0 64.287 35.407 A 5.021 5.021 0 0 0 60.701 36.953 Q 59.67 38.019 59.348 39.77 A 9.59 9.59 0 0 0 59.201 41.503 L 59.201 57.803 L 59.201 57.843 A 29.677 29.677 0 0 1 59.123 59.97 A 22.163 22.163 0 0 1 52.701 74.453 A 21.277 21.277 0 0 1 43.04 80.043 A 28.843 28.843 0 0 1 35.401 81.003 A 21.538 21.538 0 0 1 22.836 77.084 A 28.706 28.706 0 0 1 16.901 71.453 Q 12.029 65.41 10.239 56.944 A 51.454 51.454 0 0 1 9.201 46.303 A 65.214 65.214 0 0 1 9.303 42.615 Q 9.609 37.219 10.832 32.634 A 33.615 33.615 0 0 1 16.151 21.253 A 29.137 29.137 0 0 1 19.571 17.343 A 18.974 18.974 0 0 1 33.001 11.803 Q 39.601 11.803 43.051 15.003 A 10.332 10.332 0 0 1 45.996 19.791 A 13.655 13.655 0 0 1 46.501 23.603 Q 46.501 25.803 45.901 27.303 A 2.396 2.396 0 0 0 46.261 27.652 Q 47.343 28.503 49.701 28.503 Q 50.744 28.503 51.787 27.778 A 6.762 6.762 0 0 0 52.701 27.003 A 4.924 4.924 0 0 0 53.99 24.738 A 6.763 6.763 0 0 0 54.201 23.003 A 13.277 13.277 0 0 0 51.833 15.471 A 19.669 19.669 0 0 0 48.701 11.903 A 16.989 16.989 0 0 0 46.332 10.102 Q 43.437 8.276 39.666 7.492 A 30.305 30.305 0 0 0 33.501 6.903 A 42.502 42.502 0 0 0 29.175 7.118 A 30.845 30.845 0 0 0 9.251 16.653 A 29.066 29.066 0 0 0 4.07 24.31 Q 1.87 28.964 0.86 34.853 A 64.574 64.574 0 0 0 0.001 45.753 Q 0.001 54.824 2.155 61.938 A 33.912 33.912 0 0 0 9.801 75.553 A 31.719 31.719 0 0 0 24.122 84.409 A 40.757 40.757 0 0 0 35.801 86.003 Q 42.801 86.003 48.451 83.303 A 28.775 28.775 0 0 0 52.491 80.973 A 21.566 21.566 0 0 0 57.301 76.453 A 40.16 40.16 0 0 0 59.645 73.081 Z M 593.801 36.803 L 593.801 65.503 A 23.663 23.663 0 0 0 593.995 68.641 Q 594.454 72.064 596.001 74.103 A 7.002 7.002 0 0 0 601.076 76.958 A 9.23 9.23 0 0 0 602.001 77.003 Q 605.029 77.003 607.74 74.082 A 17.233 17.233 0 0 0 609.101 72.403 A 14.058 14.058 0 0 0 610.946 68.669 Q 612.401 64.343 612.401 57.503 A 0.691 0.691 0 0 1 612.601 57.211 L 612.601 26.703 A 9.59 9.59 0 0 1 612.748 24.97 Q 613.07 23.219 614.101 22.153 A 5.021 5.021 0 0 1 617.687 20.607 A 6.663 6.663 0 0 1 617.901 20.603 A 6.13 6.13 0 0 1 619.553 20.815 A 4.59 4.59 0 0 1 621.601 22.003 L 621.601 36.803 L 635.301 36.803 A 8.58 8.58 0 0 1 636.206 36.847 Q 637.554 36.991 638.051 37.603 A 2.307 2.307 0 0 1 638.415 38.265 Q 638.701 39.042 638.701 40.303 L 621.601 40.303 L 621.601 65.503 A 15.41 15.41 0 0 0 621.957 68.916 Q 622.659 72.011 624.751 74.003 A 11.047 11.047 0 0 0 628.082 76.23 A 9.994 9.994 0 0 0 632.001 77.003 A 13.112 13.112 0 0 0 635.695 76.514 A 9.297 9.297 0 0 0 641.101 72.403 A 14.565 14.565 0 0 0 642.631 68.972 Q 643.696 65.561 643.933 60.523 A 64.284 64.284 0 0 0 644.001 57.503 A 0.691 0.691 0 0 1 644.205 57.208 A 39.154 39.154 0 0 1 644.669 51.73 Q 645.198 48.478 646.326 45.896 A 16.236 16.236 0 0 1 649.651 40.903 Q 655.101 35.403 664.101 35.403 A 25.948 25.948 0 0 1 667.485 35.608 Q 671.288 36.11 673.393 37.843 A 7.088 7.088 0 0 1 673.901 38.303 A 5.964 5.964 0 0 1 674.803 36.845 A 4.076 4.076 0 0 1 678.051 35.403 A 9.258 9.258 0 0 1 679.616 35.527 Q 680.466 35.673 681.138 35.992 A 4.145 4.145 0 0 1 682.301 36.803 L 682.301 65.503 A 29.205 29.205 0 0 0 682.444 68.488 Q 682.775 71.704 683.878 73.72 A 8.078 8.078 0 0 0 684.101 74.103 A 6.956 6.956 0 0 0 685.457 75.724 A 5.252 5.252 0 0 0 689.001 77.003 A 7.387 7.387 0 0 0 695.826 72.575 Q 697.715 69.007 698.218 62.566 A 65.187 65.187 0 0 0 698.401 57.503 A 0.539 0.539 0 0 1 698.685 57.122 A 1.277 1.277 0 0 1 698.726 57.1 A 34.525 34.525 0 0 1 699.333 51.838 Q 700.582 45.637 704.301 41.553 A 18.33 18.33 0 0 1 717.659 35.422 A 23.917 23.917 0 0 1 718.601 35.403 Q 722.67 35.403 725.32 36.8 A 8.463 8.463 0 0 1 727.801 38.753 Q 730.701 42.103 730.701 46.703 A 14.97 14.97 0 0 1 725.744 58.04 A 20.239 20.239 0 0 1 724.451 59.153 A 22.333 22.333 0 0 1 715.028 63.464 A 31.692 31.692 0 0 1 708.501 64.103 A 20.744 20.744 0 0 0 709.457 68.131 Q 710.319 70.571 711.782 72.347 A 11.679 11.679 0 0 0 713.151 73.753 A 12.879 12.879 0 0 0 718.776 76.546 Q 720.73 77 723.015 77.003 A 23.149 23.149 0 0 0 723.051 77.003 Q 729.201 77.003 734.151 72.353 Q 739.101 67.703 739.101 58.703 A 0.539 0.539 0 0 1 739.385 58.322 Q 739.754 58.104 740.593 58.103 A 6.379 6.379 0 0 1 740.601 58.103 Q 742.701 58.103 742.701 61.303 A 20.16 20.16 0 0 1 738.361 73.794 A 25.781 25.781 0 0 1 737.551 74.803 Q 732.401 80.903 721.901 80.903 Q 711.401 80.903 705.051 75.253 A 18.083 18.083 0 0 1 700.851 69.631 A 21.525 21.525 0 0 1 699.627 73.087 A 16.772 16.772 0 0 1 698.051 75.803 A 11.625 11.625 0 0 1 689.599 80.802 A 15.605 15.605 0 0 1 687.801 80.903 Q 678.269 80.903 674.794 72.976 A 18.06 18.06 0 0 1 674.401 72.003 Q 672.501 76.103 669.201 78.503 Q 665.901 80.903 661.701 80.903 A 18.762 18.762 0 0 1 653.74 79.335 Q 648.598 76.949 646.228 70.937 A 29.452 29.452 0 0 1 646.034 70.408 A 19.06 19.06 0 0 1 643.251 75.603 A 12.941 12.941 0 0 1 635.845 80.333 Q 633.629 80.885 630.973 80.903 A 26.418 26.418 0 0 1 630.801 80.903 A 25.951 25.951 0 0 1 625.328 80.359 Q 621.732 79.584 619.016 77.701 A 15.388 15.388 0 0 1 617.501 76.503 A 13.977 13.977 0 0 1 613.918 71.304 A 19.785 19.785 0 0 1 611.501 75.403 A 14.887 14.887 0 0 1 607.869 78.861 A 12.577 12.577 0 0 1 600.801 80.903 A 21.64 21.64 0 0 1 596.144 80.434 Q 591.467 79.403 588.751 76.103 A 15.83 15.83 0 0 1 585.916 70.724 Q 584.801 67.178 584.801 62.503 L 584.801 41.503 A 9.59 9.59 0 0 1 584.948 39.77 Q 585.27 38.019 586.301 36.953 A 5.021 5.021 0 0 1 589.887 35.407 A 6.663 6.663 0 0 1 590.101 35.403 A 6.13 6.13 0 0 1 591.753 35.615 A 4.59 4.59 0 0 1 593.801 36.803 Z M 580.801 33.603 L 577.801 33.603 A 156.404 156.404 0 0 1 576.809 47.503 Q 574.85 63.833 569.351 72.853 A 34.709 34.709 0 0 1 564.751 78.92 Q 558.495 85.403 550.301 85.403 Q 528.101 85.403 528.101 54.603 L 528.101 36.803 A 119.662 119.662 0 0 0 527.921 30.912 Q 527.615 25.583 526.804 22.133 A 18.164 18.164 0 0 0 525.801 19.003 A 12.167 12.167 0 0 0 524.541 16.757 Q 523.667 15.552 522.593 14.875 A 5.673 5.673 0 0 0 519.501 14.003 Q 510.101 14.003 510.101 32.803 Q 509.924 33.335 509.196 33.396 A 2.365 2.365 0 0 1 509.001 33.403 Q 508.366 33.403 507.93 33.204 A 1.565 1.565 0 0 1 507.601 33.003 Q 506.371 32.183 506.15 29.479 A 15.698 15.698 0 0 1 506.101 28.203 Q 506.101 22.184 507.771 18.048 A 14.883 14.883 0 0 1 510.001 14.203 A 12.721 12.721 0 0 1 519.248 9.461 A 17.997 17.997 0 0 1 520.701 9.403 A 23.402 23.402 0 0 1 525.364 9.834 Q 531.204 11.024 533.701 15.503 A 19.336 19.336 0 0 1 535.345 19.654 Q 536.615 24.155 536.967 31.114 A 113.039 113.039 0 0 1 537.101 36.803 L 537.101 55.103 Q 537.101 66.214 538.973 72.314 A 18.671 18.671 0 0 0 540.201 75.403 A 11.117 11.117 0 0 0 543.397 79.288 Q 546.226 81.403 550.501 81.403 A 9.015 9.015 0 0 0 556.188 79.253 Q 559.258 76.813 561.975 71.606 A 49.958 49.958 0 0 0 563.301 68.853 Q 568.623 56.926 568.887 35.198 A 188.894 188.894 0 0 0 568.901 32.903 A 38.529 38.529 0 0 1 562.297 31.375 Q 551.401 27.709 551.401 18.003 Q 551.401 13.503 554.251 10.603 A 9.46 9.46 0 0 1 559.256 7.962 A 13.849 13.849 0 0 1 562.001 7.703 A 17.097 17.097 0 0 1 566.574 8.279 A 11.92 11.92 0 0 1 573.351 13.053 Q 576.92 18.144 577.817 28.351 A 70.019 70.019 0 0 1 577.901 29.403 Q 582.016 29.582 584.771 29.601 A 92.121 92.121 0 0 0 585.401 29.603 A 0.63 0.63 0 0 1 585.906 30.031 Q 585.96 30.168 585.983 30.348 A 2.369 2.369 0 0 1 586.001 30.653 A 3.613 3.613 0 0 1 585.962 31.201 Q 585.92 31.48 585.829 31.706 A 1.56 1.56 0 0 1 585.601 32.103 Q 584.781 33.334 582.077 33.555 A 15.698 15.698 0 0 1 580.801 33.603 Z M 159.801 63.603 L 159.801 79.503 A 3.052 3.052 0 0 1 158.329 80.59 Q 157.483 80.903 156.301 80.903 A 6.532 6.532 0 0 1 154.534 80.676 A 4.883 4.883 0 0 1 152.301 79.353 A 4.461 4.461 0 0 1 152.278 79.329 Q 150.801 77.78 150.801 74.803 L 150.801 36.803 A 3.052 3.052 0 0 1 152.273 35.716 Q 153.12 35.403 154.301 35.403 A 6.532 6.532 0 0 1 156.069 35.63 A 4.883 4.883 0 0 1 158.301 36.953 Q 159.801 38.503 159.801 41.503 L 159.801 49.103 A 33.492 33.492 0 0 1 162.354 43.972 Q 163.939 41.416 165.8 39.759 A 11.408 11.408 0 0 1 173.601 36.703 Q 177.67 36.703 180.32 38.1 A 8.463 8.463 0 0 1 182.801 40.053 Q 185.701 43.403 185.701 48.003 A 6.763 6.763 0 0 1 185.49 49.738 A 4.924 4.924 0 0 1 184.201 52.003 Q 182.701 53.503 181.301 53.503 A 8.78 8.78 0 0 1 180.181 53.437 Q 178.514 53.222 177.901 52.303 A 6.769 6.769 0 0 0 178.23 51.179 Q 178.501 49.884 178.501 48.003 Q 178.501 45.203 176.601 42.903 A 6.867 6.867 0 0 0 175.012 41.468 A 5.479 5.479 0 0 0 172.001 40.603 Q 167.931 40.603 164.573 47.015 A 34.387 34.387 0 0 0 163.551 49.153 A 60.094 60.094 0 0 0 161.574 54.238 Q 159.801 59.547 159.801 63.603 Z M 673.201 63.503 L 673.201 49.803 A 14.691 14.691 0 0 0 672.857 46.531 A 10.057 10.057 0 0 0 670.751 42.203 A 9.86 9.86 0 0 0 669.079 40.612 A 6.332 6.332 0 0 0 665.251 39.303 Q 662.218 39.303 660.421 39.897 A 7.495 7.495 0 0 0 660.401 39.903 Q 658.798 40.438 657.354 42.003 A 11.77 11.77 0 0 0 657.001 42.403 A 8.679 8.679 0 0 0 655.415 45.069 Q 653.701 49.355 653.701 58.003 A 72.111 72.111 0 0 0 653.835 62.546 Q 654.102 66.764 654.904 69.643 A 19.066 19.066 0 0 0 655.101 70.303 A 24.476 24.476 0 0 0 655.803 72.244 Q 656.574 74.105 657.451 75.104 A 4.046 4.046 0 0 0 658.301 75.853 Q 660.101 77.003 663.101 77.003 A 5.811 5.811 0 0 0 665.479 76.454 Q 667.263 75.656 669.217 73.7 A 23.153 23.153 0 0 0 669.651 73.253 Q 673.201 69.503 673.201 63.503 Z M 328.901 13.503 Q 328.901 3.903 324.101 3.903 A 2.876 2.876 0 0 0 323.325 4.002 A 2.067 2.067 0 0 0 322.251 4.703 Q 321.685 5.4 321.233 7.918 A 35.021 35.021 0 0 0 321.101 8.703 Q 320.259 13.288 320.205 31.883 A 900.65 900.65 0 0 0 320.201 34.503 A 19.633 19.633 0 0 0 327.353 24.411 Q 328.466 21.029 328.779 16.873 A 44.885 44.885 0 0 0 328.901 13.503 Z M 708.201 59.503 L 708.201 60.403 A 26.873 26.873 0 0 0 714.323 58.904 A 22.157 22.157 0 0 0 718.951 56.503 A 10.018 10.018 0 0 0 723.385 49.18 A 14.593 14.593 0 0 0 723.501 47.303 A 14.321 14.321 0 0 0 723.335 45.046 Q 723.147 43.869 722.745 42.924 A 6.311 6.311 0 0 0 721.801 41.353 A 5.534 5.534 0 0 0 718.29 39.401 A 8.132 8.132 0 0 0 717.001 39.303 Q 712.301 39.303 710.251 43.903 A 16.954 16.954 0 0 0 709.272 46.947 Q 708.498 50.279 708.283 55.358 A 98.589 98.589 0 0 0 708.201 59.503 Z M 556.001 17.703 Q 556.001 26.103 568.801 28.503 A 90.917 90.917 0 0 0 568.569 24.197 Q 568.092 18.21 566.851 15.503 Q 565.936 13.506 564.652 12.617 A 3.949 3.949 0 0 0 562.351 11.903 A 7.761 7.761 0 0 0 560.293 12.163 A 5.778 5.778 0 0 0 557.751 13.603 A 5.684 5.684 0 0 0 556.336 15.737 A 5.681 5.681 0 0 0 556.001 17.703 Z M 190.301 25.603 Q 188.601 23.903 188.601 21.403 Q 188.601 18.903 190.301 17.153 A 5.602 5.602 0 0 1 194.346 15.405 A 7.037 7.037 0 0 1 194.501 15.403 A 5.781 5.781 0 0 1 198.696 17.099 A 6.888 6.888 0 0 1 198.751 17.153 Q 200.501 18.903 200.501 21.403 A 5.866 5.866 0 0 1 199.993 23.866 A 5.728 5.728 0 0 1 198.751 25.603 Q 197.001 27.303 194.501 27.303 A 6.05 6.05 0 0 1 192.136 26.851 A 5.707 5.707 0 0 1 190.301 25.603 Z M 585.201 25.603 Q 583.501 23.903 583.501 21.403 Q 583.501 18.903 585.201 17.153 A 5.602 5.602 0 0 1 589.246 15.405 A 7.037 7.037 0 0 1 589.401 15.403 A 5.781 5.781 0 0 1 593.596 17.099 A 6.888 6.888 0 0 1 593.651 17.153 Q 595.401 18.903 595.401 21.403 A 5.866 5.866 0 0 1 594.893 23.866 A 5.728 5.728 0 0 1 593.651 25.603 Q 591.901 27.303 589.401 27.303 A 6.05 6.05 0 0 1 587.036 26.851 A 5.707 5.707 0 0 1 585.201 25.603 Z" vector-effect="non-scaling-stroke"/></g></svg>