<?xml version="1.0" standalone="no"?>
<!DOCTYPE svg PUBLIC "-//W3C//DTD SVG 20010904//EN"
 "http://www.w3.org/TR/2001/REC-SVG-20010904/DTD/svg10.dtd">
<svg version="1.0" xmlns="http://www.w3.org/2000/svg"
 width="512.000000pt" height="512.000000pt" viewBox="0 0 512.000000 512.000000"
 preserveAspectRatio="xMidYMid meet">

<g transform="translate(0.000000,512.000000) scale(0.100000,-0.100000)"
fill="#A1AAA1" stroke="none">
<path d="M1152 4785 c-181 -40 -352 -173 -431 -337 -93 -193 -94 -383 -2 -572
46 -92 128 -190 201 -237 l50 -32 0 -1047 0 -1047 -50 -32 c-114 -74 -224
-240 -255 -387 -45 -214 19 -429 174 -585 252 -251 650 -251 901 0 245 246
252 622 17 886 -26 30 -70 69 -97 86 l-50 32 0 469 c0 257 3 468 6 468 3 0 33
-20 67 -44 380 -269 926 -443 1515 -482 102 -7 103 -7 119 -37 8 -17 48 -63
88 -102 250 -247 646 -245 896 4 252 252 252 650 0 902 -251 250 -646 251
-897 4 -39 -39 -79 -86 -89 -104 l-17 -33 -86 6 c-528 41 -982 203 -1284 459
-167 142 -283 347 -311 550 -5 34 -3 39 25 53 46 24 158 142 196 206 52 87 83
190 89 293 24 420 -363 749 -775 660z m273 -336 c63 -30 123 -90 155 -154 35
-71 35 -197 0 -270 -31 -64 -91 -124 -155 -155 -73 -35 -199 -35 -270 0 -64
31 -124 91 -155 155 -35 71 -35 197 0 270 42 86 123 152 215 176 54 14 156 3
210 -22z m2560 -1920 c63 -30 123 -90 155 -154 20 -41 25 -65 25 -135 -1 -77
-4 -91 -34 -148 -38 -70 -70 -101 -145 -140 -43 -22 -64 -26 -136 -26 -70 -1
-94 4 -135 24 -260 128 -238 495 35 594 63 23 170 16 235 -15z m-2560 -1280
c63 -30 123 -90 155 -154 20 -41 25 -65 25 -135 -1 -77 -4 -91 -34 -148 -38
-70 -70 -101 -145 -140 -43 -22 -64 -26 -136 -26 -70 -1 -94 4 -135 24 -260
128 -238 495 35 594 63 23 170 16 235 -15z"/>
</g>
</svg>
